<?xml version="1.0" encoding="UTF-8" standalone="no"?>
<!-- Created with Inkscape (http://www.inkscape.org/) -->

<svg
   width="320"
   height="320"
   viewBox="0 0 84.666665 84.666669"
   version="1.1"
   id="svg5"
   sodipodi:docname="logo.svg"
   inkscape:version="1.1.1 (c3084ef, 2021-09-22)"
   inkscape:export-filename="/Users/Kirthmas/Desktop/favicon.ico"
   inkscape:export-xdpi="19.200001"
   inkscape:export-ydpi="19.200001"
   xmlns:inkscape="http://www.inkscape.org/namespaces/inkscape"
   xmlns:sodipodi="http://sodipodi.sourceforge.net/DTD/sodipodi-0.dtd"
   xmlns="http://www.w3.org/2000/svg"
   xmlns:svg="http://www.w3.org/2000/svg">
  <sodipodi:namedview
     id="namedview7"
     pagecolor="#505050"
     bordercolor="#eeeeee"
     borderopacity="1"
     inkscape:pageshadow="0"
     inkscape:pageopacity="0"
     inkscape:pagecheckerboard="0"
     inkscape:document-units="mm"
     showgrid="false"
     units="px"
     width="320px"
     inkscape:snap-grids="false"
     inkscape:snap-page="true"
     inkscape:snap-bbox="true"
     inkscape:bbox-paths="true"
     inkscape:snap-bbox-edge-midpoints="true"
     inkscape:snap-bbox-midpoints="true"
     inkscape:snap-smooth-nodes="true"
     inkscape:bbox-nodes="true"
     inkscape:zoom="1.0074671"
     inkscape:cx="161.29559"
     inkscape:cy="170.22888"
     inkscape:window-width="1280"
     inkscape:window-height="675"
     inkscape:window-x="0"
     inkscape:window-y="25"
     inkscape:window-maximized="0"
     inkscape:current-layer="layer2" />
  <defs
     id="defs2">
    <inkscape:path-effect
       effect="spiro"
       id="path-effect1940"
       is_visible="true"
       lpeversion="1" />
    <inkscape:path-effect
       effect="spiro"
       id="path-effect1832"
       is_visible="true"
       lpeversion="1" />
  </defs>
  <g
     inkscape:label="BG"
     inkscape:groupmode="layer"
     id="layer1"
     sodipodi:insensitive="true">
    <rect
       style="fill:#ffffff;stroke:#fdf0d5;stroke-width:1;stroke-linecap:round;stroke-linejoin:round;paint-order:stroke markers fill;stop-color:#000000"
       id="rect847"
       width="84.666664"
       height="84.666664"
       x="0"
       y="0" />
  </g>
  <g
     inkscape:groupmode="layer"
     id="layer2"
     inkscape:label="LOGO">
    <path
       id="rect849"
       style="color:#000000;fill:#000000;stroke-width:1;stroke-linecap:round;stroke-linejoin:round;-inkscape-stroke:none;paint-order:stroke markers fill"
       d="m 83.957031,9.0136422 c -28.003474,0.05837 -56.007096,-0.02287 -84.01050014,0.06016 -1.39878786,-0.09637 -2.16658236,1.9883928 -2.06567146,3.6731138 0.071816,8.633689 0.00829,17.274509 0.027938,25.910948 0.0045,11.531163 -0.00884,23.064634 0.046281,34.594285 0.2065731,1.997607 1.9139647,2.622892 3.1699219,2.361375 27.9218037,-1.3e-5 55.8441787,0.0115 83.7656247,-0.0214 1.476374,-0.174565 2.107577,-2.507677 1.863299,-4.271334 -0.0066,-19.969238 0.03181,-39.940239 -0.03908,-59.908338 C 86.544552,9.6064452 85.131557,8.8730132 83.957031,9.0136372 Z m -1.378906,5.7389728 c 0,18.381111 0,36.762221 0,55.143332 -26.830078,0 -53.660156,0 -80.4902344,0 0,-18.381111 0,-36.762221 0,-55.143332 26.8300784,0 53.6601564,0 80.4902344,0 z" />
    <path
       id="path1271"
       style="color:#000000;fill:#000000;stroke-linecap:round;stroke-linejoin:round;-inkscape-stroke:none;paint-order:stroke markers fill"
       d="m 41.787109,18.029297 c -9.047796,0.101448 -17.736441,5.792108 -21.490168,14.018395 -3.497834,7.425917 -2.917473,16.630688 1.620991,23.492559 4.269366,6.61888 11.887109,10.975409 19.785175,11.102987 7.706022,0.216297 15.425193,-3.450861 20.028933,-9.653254 4.732837,-6.22457 6.218225,-14.792907 3.714144,-22.217816 C 63.012293,27.317696 56.803519,21.1794 49.238048,19.025702 46.82552,18.312436 44.30188,17.980281 41.787109,18.029297 Z m 0.552735,4.167969 c 6.828761,-0.0555 13.521602,3.671974 17.096721,9.486625 1.411466,2.245282 2.370535,4.858536 2.773346,7.512629 0.56593,3.672767 0.168278,7.464472 -1.292806,10.93032 C 58.015837,57.166779 50.835076,62.232312 43.203462,62.449463 36.768297,62.752439 30.264984,59.774929 26.38121,54.616564 22.078547,49.126595 20.983039,41.334356 23.627164,34.876807 c 2.466138,-6.285388 8.281262,-11.136946 14.944008,-12.318776 1.2417,-0.238742 2.504605,-0.352724 3.768672,-0.360765 z" />
    <path
       id="path1375"
       style="color:#000000;fill:#000000;stroke-linecap:round;stroke-linejoin:round;-inkscape-stroke:none;paint-order:stroke markers fill"
       d="m 42.015625,18.029297 c -3.282517,0.208201 -5.826451,2.767626 -7.365234,5.484375 -3.418763,6.189998 -4.304977,13.426538 -4.155299,20.399767 0.184093,6.149597 1.327209,12.45106 4.493189,17.805311 1.579109,2.545757 4.152007,4.889062 7.305463,4.922319 3.008675,-0.0033 5.58195,-2.097479 7.110574,-4.550196 3.006156,-4.530567 4.078756,-10.017431 4.605745,-15.343892 0.584813,-6.953219 -0.09653,-14.119763 -2.701839,-20.632106 -1.252527,-2.960539 -3.121134,-5.927718 -6.077294,-7.413403 -0.9982,-0.477511 -2.107059,-0.728647 -3.215305,-0.672175 z m 0.410156,4.169922 c 2.133559,0.294379 3.369402,2.329928 4.311741,4.05878 2.345435,4.520118 3.063338,9.634779 3.262674,14.676706 0.102797,3.808808 -0.193006,7.694854 -1.060743,11.369983 -0.522194,2.111045 -1.198737,4.169435 -2.222656,6.197265 -0.860255,1.52327 -1.915906,3.194609 -3.632629,3.828301 -1.580682,0.536258 -3.0185,-0.760282 -3.914421,-1.920935 -1.941246,-2.663343 -2.957491,-5.779195 -3.615497,-8.953081 -1.108087,-5.4308 -1.222755,-10.980966 -0.328901,-16.468871 0.509133,-2.926522 1.198466,-5.828778 2.56537,-8.51722 0.866634,-1.554441 1.870438,-3.227797 3.521781,-4.042413 0.35244,-0.148242 0.728865,-0.24159 1.113281,-0.228515 z" />
    <path
       id="path1830"
       style="fill:#000000;stroke:#000000;stroke-width:0.999997;stroke-linecap:square;stroke-linejoin:round;paint-order:stroke markers fill;stop-color:#000000"
       d="m 61.785156,33.849609 c -11.791283,0.04173 -23.583668,0.0053 -35.37539,0.01758 -1.559731,0.03961 -3.144168,-0.07978 -4.688226,0.06069 -0.936771,0.39166 -1.145615,1.786437 -0.621931,2.568216 0.81811,0.92441 2.166633,0.420478 3.231641,0.546875 12.982682,0 25.965365,0 38.948047,0 1.588262,-0.353798 1.395225,-3.047009 -0.210938,-3.220703 -0.426024,-0.03505 -0.856468,0.02226 -1.283203,0.02734 z" />
    <path
       id="path1830-2"
       style="fill:#000000;stroke:#000000;stroke-width:1;stroke-linecap:square;stroke-linejoin:round;paint-order:stroke markers fill;stop-color:#000000"
       d="m 61.396484,47.607422 c -11.791283,0.04173 -23.583667,0.0053 -35.37539,0.01758 -1.409828,0.04066 -2.844914,-0.08123 -4.239007,0.06069 -0.936771,0.391659 -1.145616,1.786437 -0.621931,2.568215 0.81811,0.924411 2.166633,0.420479 3.231641,0.546875 12.832943,0 25.665885,0 38.498828,0 1.588262,-0.353798 1.395226,-3.047009 -0.210937,-3.220703 -0.426025,-0.03505 -0.856469,0.02226 -1.283204,0.02734 z" />
  </g>
</svg>
